<svg class="icon" viewBox="0 0 1024 1024" xmlns="http://www.w3.org/2000/svg" width="32" height="32"><defs><style/></defs><path d="M549.803 447.951c-21.544-21.034-56.478-21.034-78.026 0L78.311 831.18c-21.546 21.036-21.546 55.142 0 76.179s56.48 21.037 78.026 0l354.454-345.23 354.454 345.23c21.549 21.037 56.482 21.037 78.028 0 21.547-21.036 21.547-55.142 0-76.179L549.806 447.952zm-393.466 127.1l354.454-345.23 354.454 345.23c21.549 21.037 56.482 21.037 78.028 0 21.547-21.036 21.547-55.142 0-76.179L549.805 115.644c-21.544-21.034-56.478-21.034-78.026 0L78.313 498.873c-21.546 21.036-21.546 55.142 0 76.179 21.547 21.036 56.482 21.037 78.026 0z" fill="#8a8a8a"/></svg>