<svg class="icon" viewBox="0 0 1024 1024" xmlns="http://www.w3.org/2000/svg" width="32" height="32"><defs><style/></defs><path d="M511.546 64.935c-246.837 0-446.953 200.117-446.953 446.953 0 246.837 200.116 446.955 446.953 446.955 246.838 0 446.954-200.118 446.954-446.955S758.384 64.935 511.546 64.935zm-59.744 646.65l-.524.526-.07.068-37.922-37.956.056-.056-179.675-179.703 37.922-37.921L451.278 636.23l317.967-317.964 37.955 37.92-355.398 355.398z" fill="#19be6b"/><path d="M511.546 959.355c-60.405 0-119.004-11.832-174.17-35.165-53.284-22.539-101.137-54.803-142.233-95.898-41.095-41.095-73.359-88.95-95.897-142.233C75.91 630.894 64.08 572.293 64.08 511.89c0-60.405 11.831-119.005 35.166-174.171 22.537-53.284 54.802-101.138 95.897-142.233 41.095-41.095 88.949-73.359 142.232-95.897 55.167-23.334 113.765-35.166 174.171-35.166s119.005 11.832 174.171 35.166C739 122.125 786.854 154.39 827.948 195.485c41.095 41.095 73.36 88.95 95.898 142.233 23.335 55.166 35.165 113.765 35.165 174.17 0 60.405-11.831 119.005-35.165 174.171-22.537 53.284-54.803 101.138-95.898 142.233C786.854 869.387 739 901.65 685.717 924.19c-55.166 23.334-113.765 35.165-174.17 35.165zm0-893.908c-246.168 0-446.442 200.273-446.442 446.441 0 246.17 200.274 446.443 446.442 446.443 246.17 0 446.442-200.273 446.442-446.443.001-246.168-200.272-446.441-446.442-446.441zm-60.268 647.387l-.431-.293-38.284-38.318.055-.055-179.674-179.704 38.645-38.645 179.689 179.689 317.967-317.965 38.678 38.644-356.645 356.647zm-37.267-38.61l37.197 37.232.232-.234 355.036-355.035-37.23-37.197-317.968 317.965-179.689-179.688-37.198 37.198 179.675 179.703-.055.056z" fill="#19be6b"/></svg>